<?xml version="1.0" encoding="UTF-8"?>
<svg xmlns="http://www.w3.org/2000/svg" xmlns:xlink="http://www.w3.org/1999/xlink" width="2113" height="2113" viewBox="0 0 2113 2113">

<path fill-rule="nonzero" fill="rgb(24.705505%, 12.939453%, 9.397888%)" fill-opacity="1" d="M 278.621094 1269.03125 C 292.59375 1195.980469 347.867188 1132.070312 418.601562 1109 C 453.609375 1097.550781 492.871094 1095.628906 527.488281 1109.160156 C 561.929688 1122.6875 591.460938 1148.238281 610.050781 1180.183594 C 619.421875 1196.101562 626.28125 1213.523438 629.9375 1231.621094 C 633.484375 1249.722656 633.5625 1268.515625 629.726562 1286.515625 C 622.863281 1323.074219 595.441406 1353.246094 562.257812 1368.570312 C 545.640625 1376.421875 527.078125 1380.113281 508.835938 1379.109375 C 490.605469 1378.113281 472.59375 1371.816406 458.285156 1360.402344 C 443.964844 1349.253906 432.96875 1333.179688 430.277344 1315.242188 C 427.652344 1297.492188 433.222656 1278.0625 446.757812 1266.210938 C 453.316406 1260.515625 462.421875 1256.707031 470.59375 1258.839844 C 478.96875 1260.953125 483.710938 1269.28125 487.25 1277.628906 C 490.996094 1285.855469 494.363281 1295.644531 502.878906 1301.644531 C 511.035156 1307.730469 521.820312 1308.820312 531.269531 1306.851562 C 540.824219 1304.902344 549.847656 1300.050781 556.449219 1292.742188 C 563.3125 1285.492188 566.570312 1275.554688 567.300781 1265.96875 C 568.578125 1246.347656 559.882812 1227.5625 547.253906 1213.378906 C 534.378906 1199.1875 517.480469 1188.984375 499.171875 1183.640625 C 480.882812 1178.214844 460.964844 1178.324219 442.617188 1183.574219 C 405.78125 1194.453125 376.160156 1224.082031 362.65625 1259.636719 C 349.386719 1295.773438 354.730469 1336.691406 372.191406 1370.183594 C 380.828125 1387.078125 392.433594 1402.421875 406.132812 1415.539062 C 419.925781 1428.625 436.082031 1439.03125 453.175781 1447.101562 C 487.582031 1463.300781 525.730469 1468.996094 563.167969 1469.746094 C 600.796875 1470.324219 638.214844 1465.460938 674.777344 1456.742188 L 679.203125 1455.683594 L 677.246094 1451.515625 C 663.878906 1423.070312 656.132812 1391.921875 655.195312 1360.511719 C 654.753906 1344.835938 655.8125 1329 659.242188 1313.832031 C 662.683594 1298.710938 668.855469 1284.039062 678.953125 1272.667969 C 688.957031 1261.210938 703.394531 1254.347656 718.582031 1253.148438 C 733.773438 1251.839844 749.347656 1255.375 763.230469 1262.035156 C 777.144531 1268.703125 789.273438 1278.914062 799.800781 1290.484375 C 810.378906 1302.074219 819.421875 1315.101562 828.078125 1328.414062 L 830.464844 1332.085938 L 833.378906 1328.601562 C 838.527344 1322.4375 843.296875 1315.71875 848.75 1309.992188 L 849.207031 1309.515625 L 849.433594 1308.902344 C 856.652344 1289.527344 865.773438 1270.839844 877.636719 1254.019531 L 880.269531 1250.296875 L 875.847656 1249.199219 C 829.09375 1237.621094 783.210938 1221.03125 742.417969 1195.441406 C 701.765625 1170.082031 666.464844 1135.023438 645.316406 1091.800781 C 634.390625 1070.46875 627.542969 1047.199219 621.582031 1023.878906 C 615.820312 1000.480469 611.90625 976.628906 609.816406 952.609375 C 605.789062 904.558594 609.085938 855.910156 619.363281 808.78125 L 619.988281 805.929688 L 617.078125 805.980469 C 601.953125 806.25 586.816406 805.71875 571.851562 803.828125 C 564.347656 803 556.957031 801.519531 549.652344 799.699219 L 538.652344 797.148438 L 527.988281 793.488281 C 513.65625 788.859375 500.445312 781.449219 488.09375 773.019531 C 476.203125 763.921875 465.453125 753.300781 457.085938 740.828125 C 449.078125 728.230469 442.472656 714.570312 438.890625 699.949219 C 435.445312 685.390625 433.222656 670.359375 433.984375 655.289062 C 434.496094 640.269531 436.460938 625.210938 440.632812 610.710938 C 442.289062 603.339844 445.207031 596.359375 447.597656 589.210938 C 450.738281 582.359375 453.308594 575.21875 457.136719 568.710938 C 471.046875 541.96875 491.332031 518.449219 516.332031 501.621094 C 528.988281 493.441406 542.789062 487.191406 557.246094 483 C 571.855469 479.609375 586.929688 477.488281 601.972656 478.960938 C 632.039062 480.980469 661.273438 492.679688 685.222656 510.941406 C 709.304688 529.199219 728.4375 553.761719 741 581.230469 L 741.769531 582.921875 L 743.085938 581.609375 C 809.640625 515.601562 895.835938 469.140625 988.070312 452.050781 L 991.925781 451.339844 L 988.691406 449.121094 C 968.132812 435 955.695312 409.761719 957.015625 384.890625 L 954.0625 385.980469 C 992.425781 426.648438 1047.859375 450.519531 1103.820312 450.441406 L 1107.871094 450.441406 L 1105.28125 447.308594 C 1081.660156 418.859375 1076.878906 376.101562 1093.589844 343.179688 L 1089.980469 343.21875 C 1100.050781 361.75 1113.941406 378.03125 1130.070312 391.460938 C 1146.191406 404.921875 1164.210938 415.921875 1183.03125 424.988281 C 1201.78125 434.238281 1221.519531 441.390625 1241.171875 448.039062 C 1260.800781 454.808594 1280.421875 461.609375 1299.828125 468.898438 C 1338.699219 483.308594 1376.878906 499.738281 1412.511719 520.75 C 1430.238281 531.351562 1447.289062 543.070312 1463.488281 555.871094 C 1479.558594 568.839844 1494.609375 583 1508.890625 597.921875 L 1511.070312 600.199219 L 1513.058594 597.761719 C 1551.070312 551.210938 1607.628906 519.140625 1667.460938 513.078125 C 1697.238281 510.199219 1728.03125 514.808594 1754.378906 528.871094 C 1780.878906 542.71875 1801.621094 565.960938 1815.160156 592.570312 C 1822.199219 605.828125 1826.851562 620.078125 1829.941406 634.648438 C 1832.679688 649.308594 1833.160156 664.308594 1831.761719 679.160156 C 1828.28125 708.738281 1816.929688 737.488281 1798.71875 761.191406 C 1781.03125 785.320312 1756.480469 803.960938 1729.339844 816.160156 C 1701.859375 828 1671.609375 833.03125 1641.660156 832.109375 L 1636.71875 831.960938 L 1637.839844 836.800781 C 1648.050781 880.75 1653.300781 926.171875 1649.800781 971.101562 C 1646.140625 1015.851562 1633.339844 1060.21875 1608.878906 1097.949219 C 1596.710938 1116.773438 1582 1133.890625 1565.53125 1149.132812 C 1549.089844 1164.386719 1530.628906 1177.652344 1511.578125 1189.652344 C 1473.308594 1213.554688 1431.441406 1231.722656 1387.949219 1243.789062 L 1383.820312 1244.933594 L 1385.320312 1248.953125 C 1393.949219 1272.164062 1397.640625 1297.089844 1398.921875 1322.03125 L 1399.03125 1324.097656 L 1400.839844 1325.21875 L 1404.820312 1327.691406 L 1408.320312 1329.867188 L 1410.398438 1326.414062 C 1421.011719 1308.769531 1434.738281 1292.9375 1450.46875 1279.578125 C 1466.210938 1266.277344 1484.121094 1255.320312 1503.539062 1248.984375 C 1522.839844 1242.660156 1544.019531 1241.308594 1562.960938 1248.21875 C 1581.589844 1255.367188 1597.761719 1269.605469 1607.890625 1286.902344 C 1612.828125 1295.679688 1616.339844 1305.253906 1618.488281 1315.183594 C 1620.429688 1325.171875 1621.078125 1335.417969 1620.761719 1345.664062 C 1619.878906 1366.195312 1615 1386.550781 1607.601562 1405.859375 C 1592.328125 1444.449219 1566.929688 1478.65625 1547.261719 1516.324219 C 1537.390625 1535.160156 1528.808594 1554.933594 1523.980469 1576.09375 C 1521.738281 1586.742188 1520.609375 1597.847656 1522.640625 1609.078125 C 1524.398438 1620.078125 1530.199219 1631.460938 1539.699219 1638.226562 C 1548.941406 1645.40625 1560.03125 1648.3125 1570.371094 1650.695312 C 1580.828125 1652.988281 1591.148438 1654.636719 1600.699219 1657.832031 C 1610.191406 1661.011719 1618.789062 1666.070312 1624.339844 1673.878906 C 1629.871094 1681.671875 1632.53125 1691.417969 1632.648438 1701.242188 C 1632.699219 1720.902344 1623.328125 1741.035156 1607.5 1752.53125 C 1591.121094 1764.074219 1570.371094 1768.5 1550.039062 1767.410156 C 1529.589844 1766.453125 1509.429688 1760.925781 1490.488281 1752.625 C 1471.53125 1744.367188 1453.75 1733.414062 1437.671875 1720.367188 L 1434.191406 1717.550781 L 1431.71875 1721.046875 C 1423.621094 1732.503906 1412.878906 1741.363281 1400.96875 1748.441406 C 1389.058594 1755.496094 1375.660156 1760.019531 1362.019531 1761.785156 C 1348.371094 1763.671875 1334.328125 1762.054688 1321.859375 1756.71875 C 1309.289062 1751.550781 1298.890625 1741.90625 1291.789062 1730.234375 L 1290.199219 1727.621094 L 1287.320312 1728.621094 C 1238.839844 1745.496094 1187.789062 1755.542969 1136.460938 1754.902344 C 1110.828125 1754.640625 1085.230469 1751.835938 1060.089844 1746.679688 C 1034.898438 1741.566406 1010.359375 1733.929688 986.089844 1725.195312 L 983.335938 1724.203125 L 982.246094 1726.855469 C 976.796875 1740.140625 967.144531 1751.21875 955.210938 1758.957031 C 943.207031 1766.695312 928.84375 1770.375 914.523438 1771.269531 C 900.140625 1772.121094 885.527344 1769.976562 871.921875 1765.078125 C 858.339844 1760.15625 845.511719 1752.949219 835.183594 1742.695312 L 833.691406 1741.214844 L 831.882812 1742.496094 C 805.320312 1761.300781 772.242188 1769.398438 739.761719 1771.226562 C 723.464844 1772.109375 707 1770.921875 691.261719 1766.855469 C 675.601562 1762.886719 660.476562 1755.449219 649.859375 1743.460938 C 644.621094 1737.507812 640.503906 1730.390625 638.363281 1722.785156 C 636.257812 1715.144531 636.105469 1706.992188 637.59375 1699.15625 C 640.5625 1683.511719 649.984375 1668.878906 663.613281 1660.558594 C 677.304688 1651.871094 694.671875 1653.546875 710.964844 1648.613281 C 719.167969 1646.140625 726.75 1641.277344 732.367188 1634.796875 C 735.265625 1631.617188 737.105469 1627.6875 739.503906 1624.160156 C 741.441406 1620.421875 742.703125 1616.289062 744.316406 1612.367188 L 742.621094 1613.636719 L 744.316406 1612.367188 C 749.039062 1595.765625 748.246094 1577.84375 742.488281 1561.65625 C 736.679688 1545.53125 727.257812 1531.164062 717.359375 1517.554688 L 716.617188 1516.535156 L 715.464844 1517.027344 C 668.339844 1537.089844 616.328125 1541.621094 565.480469 1544.359375 C 514.582031 1546.105469 462.339844 1540.613281 415.679688 1519.21875 C 392.46875 1508.660156 370.625 1494.800781 351.921875 1477.386719 C 333.25 1459.957031 317.417969 1439.519531 305.023438 1417.171875 C 280.03125 1372.636719 269.894531 1319.519531 278.621094 1269.03125 Z M 277.796875 1268.878906 C 268.839844 1319.546875 278.816406 1372.964844 303.785156 1417.855469 C 316.164062 1440.378906 332.015625 1461.007812 350.757812 1478.636719 C 369.542969 1496.253906 391.5 1510.308594 414.859375 1521.035156 C 461.8125 1542.78125 514.425781 1548.496094 565.566406 1546.933594 C 616.609375 1544.367188 668.816406 1540.066406 716.695312 1519.933594 L 714.804688 1519.402344 C 724.597656 1532.972656 733.773438 1547.128906 739.339844 1562.785156 C 744.808594 1578.289062 745.488281 1595.609375 740.925781 1611.371094 L 742.621094 1610.101562 L 740.925781 1611.371094 C 739.355469 1615.066406 738.195312 1618.929688 736.335938 1622.492188 C 734.058594 1625.761719 732.355469 1629.460938 729.644531 1632.394531 C 724.390625 1638.386719 717.5 1642.777344 709.863281 1645.058594 C 694.667969 1649.757812 676.742188 1647.878906 661.601562 1657.207031 C 646.859375 1666.15625 636.832031 1681.660156 633.570312 1698.394531 C 631.945312 1706.777344 632.070312 1715.570312 634.320312 1723.90625 C 636.640625 1732.246094 640.996094 1739.832031 646.609375 1746.292969 C 657.976562 1759.238281 673.917969 1767.054688 690.105469 1771.253906 C 706.394531 1775.539062 723.296875 1776.824219 739.996094 1776.003906 C 773.160156 1774.269531 807.0625 1766.269531 834.933594 1746.773438 L 831.632812 1746.570312 C 842.328125 1757.277344 855.910156 1765.042969 870.089844 1770.230469 C 884.339844 1775.429688 899.632812 1777.761719 914.835938 1776.941406 C 929.960938 1776.070312 945.296875 1772.246094 958.34375 1763.945312 C 971.292969 1755.710938 981.980469 1743.445312 987.847656 1729.269531 L 984.003906 1730.929688 C 1008.339844 1739.820312 1033.269531 1747.71875 1058.769531 1753.015625 C 1084.269531 1758.371094 1110.289062 1761.355469 1136.371094 1761.742188 C 1188.601562 1762.648438 1240.601562 1752.648438 1289.78125 1735.789062 L 1285.320312 1734.175781 C 1293.03125 1747.027344 1304.691406 1757.988281 1318.738281 1763.851562 C 1332.679688 1769.90625 1348.191406 1771.679688 1362.988281 1769.714844 C 1377.820312 1767.867188 1392.210938 1763.054688 1405.070312 1755.539062 C 1417.828125 1748.089844 1429.761719 1738.261719 1438.320312 1726.199219 L 1432.378906 1726.878906 C 1449.039062 1740.371094 1467.46875 1751.71875 1487.160156 1760.285156 C 1506.78125 1768.863281 1527.949219 1774.722656 1549.671875 1775.722656 C 1571.238281 1776.871094 1594.03125 1772.191406 1612.308594 1759.285156 C 1630.679688 1745.800781 1640.890625 1723.519531 1640.910156 1701.171875 C 1640.769531 1689.984375 1637.738281 1678.488281 1631.019531 1669.039062 C 1624.261719 1659.503906 1613.691406 1653.449219 1603.328125 1650.035156 C 1592.851562 1646.550781 1582.261719 1644.90625 1572.160156 1642.671875 C 1562.121094 1640.402344 1552.199219 1637.628906 1544.691406 1631.71875 C 1536.878906 1626.117188 1532.320312 1617.269531 1530.691406 1607.601562 C 1528.929688 1598.015625 1529.859375 1587.714844 1531.96875 1577.8125 C 1536.511719 1557.820312 1544.808594 1538.53125 1554.46875 1520.101562 C 1573.730469 1483.070312 1599.238281 1448.855469 1615.128906 1408.769531 C 1622.800781 1388.757812 1627.890625 1367.613281 1628.808594 1345.976562 C 1629.140625 1335.167969 1628.460938 1324.277344 1626.359375 1313.558594 C 1624.050781 1302.886719 1620.25 1292.484375 1614.839844 1282.90625 C 1609.640625 1273.097656 1601.800781 1265.167969 1593.828125 1257.738281 C 1589.941406 1253.882812 1584.960938 1251.253906 1580.558594 1247.976562 C 1575.921875 1245.039062 1570.648438 1243.144531 1565.699219 1240.714844 C 1544.738281 1233.066406 1521.578125 1234.667969 1501.078125 1241.40625 C 1480.410156 1248.183594 1461.71875 1259.679688 1445.328125 1273.53125 C 1428.96875 1287.457031 1414.71875 1303.882812 1403.609375 1322.382812 L 1409.179688 1321.105469 L 1404.898438 1318.441406 L 1406.808594 1321.628906 C 1405.488281 1296.175781 1401.71875 1270.472656 1392.679688 1246.203125 L 1390.050781 1251.367188 C 1434.261719 1239.074219 1476.78125 1220.609375 1515.71875 1196.261719 C 1535.140625 1184.007812 1553.828125 1170.578125 1570.78125 1154.855469 C 1587.699219 1139.1875 1602.851562 1121.542969 1615.398438 1102.121094 C 1640.609375 1063.199219 1653.738281 1017.46875 1657.441406 971.699219 C 1660.988281 925.730469 1655.621094 879.660156 1645.238281 835.03125 L 1641.429688 839.710938 C 1672.371094 840.648438 1703.730469 835.449219 1732.328125 823.101562 C 1760.71875 810.390625 1786.261719 790.800781 1804.609375 765.609375 C 1823.480469 740.851562 1835.261719 710.839844 1838.78125 679.890625 C 1840.191406 664.371094 1839.640625 648.671875 1836.710938 633.339844 C 1833.460938 618.128906 1828.480469 603.160156 1821.160156 589.46875 C 1807.050781 561.941406 1785.238281 537.601562 1757.390625 523.179688 C 1729.710938 508.519531 1697.601562 503.898438 1666.871094 506.96875 C 1636.011719 510.011719 1606.179688 520.191406 1579.25 535.179688 C 1552.328125 550.21875 1528.101562 570.210938 1508.75 594.300781 L 1510.898438 593.269531 L 1512.910156 594.140625 C 1498.421875 579.078125 1483.128906 564.78125 1466.800781 551.710938 C 1450.359375 538.800781 1433.070312 527 1415.109375 516.351562 C 1379.03125 495.238281 1340.511719 478.828125 1301.46875 464.5 C 1281.960938 457.25 1262.289062 450.511719 1242.628906 443.769531 C 1222.929688 437.148438 1203.5 430.160156 1184.929688 421.058594 C 1148.03125 403.308594 1113.171875 377.738281 1093.570312 341.289062 L 1091.710938 337.828125 L 1089.949219 341.328125 C 1072.589844 375.878906 1077.660156 420.070312 1102.351562 449.75 L 1103.808594 446.628906 C 1048.941406 446.851562 994.328125 423.5 956.550781 383.628906 L 953.792969 380.71875 L 953.597656 384.71875 C 952.300781 410.839844 965.300781 437.03125 986.855469 451.789062 L 987.476562 448.859375 C 894.601562 466.300781 808.027344 513.25 741.265625 579.78125 L 743.351562 580.160156 C 730.492188 552.378906 711.285156 527.410156 686.855469 508.800781 C 662.566406 490.160156 632.878906 478.148438 602.191406 475.988281 C 586.839844 474.460938 571.398438 476.570312 556.445312 480 C 541.636719 484.230469 527.5 490.589844 514.550781 498.910156 C 488.96875 516.019531 468.261719 539.910156 454.03125 567.070312 C 450.117188 573.691406 447.476562 580.929688 444.265625 587.890625 C 441.804688 595.160156 438.824219 602.261719 437.105469 609.761719 C 432.820312 624.5 430.765625 639.851562 430.199219 655.191406 C 429.378906 670.570312 431.589844 685.980469 435.09375 700.941406 C 438.730469 715.960938 445.472656 730.058594 453.710938 743.089844 C 462.304688 755.980469 473.375 767 485.613281 776.410156 C 498.300781 785.140625 511.886719 792.78125 526.535156 797.570312 L 537.445312 801.351562 L 548.664062 803.988281 C 556.121094 805.871094 563.65625 807.390625 571.285156 808.269531 C 586.515625 810.230469 601.867188 810.808594 617.152344 810.578125 L 614.871094 807.78125 C 604.351562 855.328125 600.871094 904.460938 604.792969 953.03125 C 606.835938 977.308594 610.71875 1001.441406 616.488281 1025.121094 C 622.441406 1048.691406 629.304688 1072.308594 640.445312 1094.230469 C 661.964844 1138.511719 698.027344 1174.488281 739.3125 1200.382812 C 780.75 1226.523438 827.195312 1243.429688 874.347656 1255.246094 L 872.554688 1250.425781 C 860.257812 1267.753906 850.859375 1286.921875 843.441406 1306.660156 L 844.125 1305.570312 C 838.285156 1311.6875 833.550781 1318.351562 828.210938 1324.71875 L 833.507812 1324.90625 C 824.804688 1311.445312 815.617188 1298.105469 804.675781 1286.050781 C 793.796875 1274.035156 781.082031 1263.199219 766.152344 1255.984375 C 751.339844 1248.839844 734.6875 1244.945312 717.988281 1246.324219 C 701.339844 1247.535156 684.851562 1255.304688 673.761719 1268.003906 C 662.535156 1280.589844 655.988281 1296.347656 652.316406 1312.226562 C 648.664062 1328.210938 647.554688 1344.507812 647.960938 1360.71875 C 648.839844 1393.179688 656.75 1425.320312 670.457031 1454.699219 L 672.921875 1449.476562 C 637.105469 1457.933594 600.136719 1463.066406 563.265625 1462.578125 C 526.539062 1462 489.28125 1456.53125 456 1441.007812 C 439.457031 1433.273438 423.894531 1423.332031 410.601562 1410.824219 C 397.382812 1398.265625 386.140625 1383.527344 377.769531 1367.3125 C 360.820312 1335.152344 355.667969 1295.960938 368.121094 1261.65625 C 380.808594 1227.742188 409.199219 1199.152344 444.128906 1188.734375 C 461.515625 1183.703125 480.285156 1183.503906 497.746094 1188.59375 C 515.167969 1193.589844 531.375 1203.3125 543.585938 1216.671875 C 555.585938 1229.988281 563.742188 1247.765625 562.605469 1265.632812 C 561.941406 1274.460938 559.070312 1283.273438 553.042969 1289.65625 C 547.21875 1296.1875 538.980469 1300.683594 530.371094 1302.457031 C 521.820312 1304.277344 512.359375 1303.261719 505.445312 1298.105469 C 498.273438 1293.226562 494.953125 1284.335938 491.144531 1275.890625 C 489.210938 1271.621094 487.144531 1267.238281 484.078125 1263.289062 C 480.980469 1259.410156 476.699219 1256.078125 471.648438 1254.828125 C 461.390625 1252.316406 451.355469 1256.902344 444.101562 1263.171875 C 429.375 1276.226562 423.652344 1296.945312 426.484375 1315.808594 C 429.441406 1334.949219 441.109375 1351.707031 456.050781 1363.265625 C 470.972656 1375.089844 489.773438 1381.582031 508.636719 1382.535156 C 527.527344 1383.511719 546.597656 1379.613281 563.609375 1371.507812 C 597.558594 1355.714844 625.585938 1324.605469 632.5 1287.109375 C 636.355469 1268.683594 636.199219 1249.507812 632.523438 1231.105469 C 628.738281 1212.707031 621.707031 1195.050781 612.148438 1178.9375 C 593.164062 1146.609375 563.171875 1120.839844 528.21875 1107.261719 C 492.992188 1093.648438 453.363281 1095.78125 418.089844 1107.441406 C 346.835938 1130.988281 291.578125 1195.460938 277.796875 1268.878906 "/>
<path fill-rule="nonzero" fill="rgb(50.976562%, 38.426208%, 23.143005%)" fill-opacity="1" d="M 1822.308594 599.328125 C 1861.269531 684.601562 1814.308594 783.480469 1731.179688 819.488281 C 1703.019531 831.679688 1672.25 836.839844 1641.539062 835.910156 C 1637.378906 818.558594 1632.25 801.46875 1626.289062 784.671875 C 1611.359375 742.578125 1590.980469 702.449219 1566.058594 665.339844 C 1550.320312 641.898438 1532.828125 619.640625 1513.699219 598.921875 C 1512.769531 597.921875 1511.828125 597.011719 1510.898438 596.03125 C 1590.109375 497.378906 1759.929688 462.769531 1822.308594 599.328125 "/>
<path fill-rule="nonzero" fill="rgb(50.976562%, 38.426208%, 23.143005%)" fill-opacity="1" d="M 641.808594 485.789062 C 686.523438 501.53125 722.449219 537.46875 742.175781 580.691406 C 726.113281 596.660156 711.140625 613.699219 697.5625 631.820312 C 687.261719 645.570312 677.703125 659.871094 669.023438 674.71875 C 652.847656 702.398438 639.789062 731.808594 629.75 762.230469 C 624.757812 777.351562 620.570312 792.730469 617.117188 808.28125 C 597.519531 808.601562 577.984375 807.589844 558.675781 804.070312 C 326.746094 761.671875 448.203125 417.640625 641.808594 485.789062 "/>
<path fill-rule="nonzero" fill="rgb(97.65625%, 86.71875%, 76.5625%)" fill-opacity="1" d="M 1655.011719 584.011719 C 1751.890625 568.269531 1824.269531 715.261719 1726.980469 763.71875 C 1698.738281 777.78125 1661.25 783.28125 1626.289062 784.671875 C 1611.359375 742.578125 1590.980469 702.449219 1566.058594 665.339844 C 1585.570312 628.011719 1610.671875 591.210938 1655.011719 584.011719 "/>
<path fill-rule="nonzero" fill="rgb(97.65625%, 86.71875%, 76.5625%)" fill-opacity="1" d="M 629.75 762.230469 C 596.972656 759.199219 565.007812 749.261719 539.539062 728.871094 C 504.449219 700.769531 485.664062 649.648438 504.253906 608.71875 C 518.410156 577.550781 552.273438 557.390625 586.496094 556.480469 C 620.722656 555.570312 654.226562 572.539062 676.523438 598.519531 C 685.132812 608.550781 692.101562 619.820312 697.5625 631.820312 C 687.261719 645.570312 677.703125 659.871094 669.023438 674.71875 C 652.847656 702.398438 639.789062 731.808594 629.75 762.230469 "/>
<path fill-rule="nonzero" fill="rgb(50.976562%, 38.426208%, 23.143005%)" fill-opacity="1" d="M 617.117188 808.28125 C 620.570312 792.730469 624.757812 777.351562 629.75 762.230469 C 639.789062 731.808594 652.847656 702.398438 669.023438 674.71875 C 677.703125 659.871094 687.261719 645.570312 697.5625 631.820312 C 711.140625 613.699219 726.113281 596.660156 742.175781 580.691406 C 808.871094 514.390625 895.25 467.710938 987.773438 450.460938 C 966.730469 436.039062 953.992188 410.28125 955.304688 384.800781 C 993.355469 425.070312 1048.429688 448.699219 1103.820312 448.53125 C 1079.671875 419.519531 1074.730469 375.929688 1091.769531 342.261719 C 1119.410156 393.71875 1175.449219 423.148438 1230.710938 442.070312 C 1339.300781 479.25 1430.578125 510.558594 1510.898438 596.03125 C 1511.828125 597.011719 1512.769531 597.921875 1513.699219 598.921875 C 1532.828125 619.640625 1550.320312 641.898438 1566.058594 665.339844 C 1590.980469 702.449219 1611.359375 742.578125 1626.289062 784.671875 C 1632.25 801.46875 1637.378906 818.558594 1641.539062 835.910156 C 1644.410156 847.859375 1646.859375 859.910156 1648.828125 872.058594 C 1666.921875 983.941406 1646.171875 1089.371094 1555.160156 1163.386719 C 1506.171875 1203.226562 1445.050781 1233.125 1382.640625 1249.421875 C 1392.320312 1245.394531 1401.949219 1241.261719 1411.488281 1236.90625 C 1515.851562 1189.234375 1595.101562 1081.949219 1590.28125 964.449219 C 1589.179688 937.679688 1582.820312 908.800781 1562.21875 891.648438 C 1573.878906 856.839844 1565.011719 818.351562 1550.53125 784.609375 C 1526.710938 729.128906 1486.421875 679.230469 1432.421875 652.238281 C 1338 605.058594 1231.359375 657.839844 1167.851562 732.769531 C 1155.511719 747.328125 1141.339844 764.671875 1122.28125 763.691406 C 1103.929688 762.75 1091.660156 745.320312 1080.378906 730.808594 C 1008.871094 638.820312 869.847656 620.351562 778.570312 696.160156 C 735.761719 731.730469 711.214844 790.980469 724.503906 845.019531 C 725.449219 848.871094 726.574219 852.890625 725.578125 856.730469 C 722.832031 867.289062 702.003906 879.320312 695.382812 889.089844 C 685.910156 903.070312 680.65625 919.75 677.722656 936.230469 C 658.628906 1043.441406 702.773438 1140.648438 773.894531 1216.339844 C 707.949219 1183.886719 654.816406 1135.09375 630.0625 1062.5 C 602.316406 981.128906 598.507812 892.171875 617.117188 808.28125 "/>
<path fill-rule="nonzero" fill="rgb(97.65625%, 86.71875%, 76.5625%)" fill-opacity="1" d="M 677.722656 936.230469 C 680.65625 919.75 685.910156 903.070312 695.382812 889.089844 C 702.003906 879.320312 722.832031 867.289062 725.578125 856.730469 C 726.574219 852.890625 725.449219 848.871094 724.503906 845.019531 C 711.214844 790.980469 735.761719 731.730469 778.570312 696.160156 C 869.847656 620.351562 1008.871094 638.820312 1080.378906 730.808594 C 1091.660156 745.320312 1103.929688 762.75 1122.28125 763.691406 C 1141.339844 764.671875 1155.511719 747.328125 1167.851562 732.769531 C 1231.359375 657.839844 1338 605.058594 1432.421875 652.238281 C 1486.421875 679.230469 1526.710938 729.128906 1550.53125 784.609375 C 1565.011719 818.351562 1573.878906 856.839844 1562.21875 891.648438 C 1582.820312 908.800781 1589.179688 937.679688 1590.28125 964.449219 C 1595.101562 1081.949219 1515.851562 1189.234375 1411.488281 1236.90625 C 1401.949219 1241.261719 1392.320312 1245.394531 1382.640625 1249.421875 C 1367.011719 1253.5 1351.300781 1256.765625 1335.679688 1259.074219 C 1273.21875 1268.3125 1210.230469 1273.933594 1147.121094 1275.9375 C 1036.640625 1279.449219 886.535156 1271.777344 773.894531 1216.339844 C 702.773438 1140.648438 658.628906 1043.441406 677.722656 936.230469 "/>
<path fill-rule="nonzero" fill="rgb(24.705505%, 12.939453%, 9.397888%)" fill-opacity="1" d="M 1320.941406 955.511719 C 1320.941406 980.511719 1341.210938 1000.78125 1366.210938 1000.78125 C 1391.210938 1000.78125 1411.480469 980.511719 1411.480469 955.511719 C 1411.480469 930.511719 1391.210938 910.238281 1366.210938 910.238281 C 1341.210938 910.238281 1320.941406 930.511719 1320.941406 955.511719 "/>
<path fill-rule="nonzero" fill="rgb(99.21875%, 99.21875%, 99.21875%)" fill-opacity="1" d="M 1335.328125 936.910156 C 1335.328125 945.441406 1342.238281 952.351562 1350.769531 952.351562 C 1359.300781 952.351562 1366.210938 945.441406 1366.210938 936.910156 C 1366.210938 928.378906 1359.300781 921.46875 1350.769531 921.46875 C 1342.238281 921.46875 1335.328125 928.378906 1335.328125 936.910156 "/>
<path fill-rule="nonzero" fill="rgb(24.705505%, 12.939453%, 9.397888%)" fill-opacity="1" d="M 966.148438 955.511719 C 966.148438 980.511719 945.882812 1000.78125 920.882812 1000.78125 C 895.878906 1000.78125 875.609375 980.511719 875.609375 955.511719 C 875.609375 930.511719 895.878906 910.238281 920.882812 910.238281 C 945.882812 910.238281 966.148438 930.511719 966.148438 955.511719 "/>
<path fill-rule="nonzero" fill="rgb(99.21875%, 99.21875%, 99.21875%)" fill-opacity="1" d="M 951.761719 936.910156 C 951.761719 945.441406 944.847656 952.351562 936.320312 952.351562 C 927.792969 952.351562 920.882812 945.441406 920.882812 936.910156 C 920.882812 928.378906 927.792969 921.46875 936.320312 921.46875 C 944.847656 921.46875 951.761719 928.378906 951.761719 936.910156 "/>
<path fill-rule="nonzero" fill="rgb(24.705505%, 12.939453%, 9.397888%)" fill-opacity="1" d="M 1074.578125 1026.398438 C 1074.578125 1043.648438 1105.539062 1057.628906 1143.71875 1057.628906 C 1181.898438 1057.628906 1212.851562 1043.648438 1212.851562 1026.398438 C 1212.851562 1009.148438 1181.898438 995.160156 1143.71875 995.160156 C 1105.539062 995.160156 1074.578125 1009.148438 1074.578125 1026.398438 "/>
<path fill="none" stroke-width="8.229" stroke-linecap="round" stroke-linejoin="round" stroke="rgb(24.705505%, 12.939453%, 9.397888%)" stroke-opacity="1" stroke-miterlimit="10" d="M 11425.898438 10533.28125 C 11406.210938 10358.398438 11394.492188 10182.695312 11390.78125 10006.796875 C 11389.414062 9939.492188 11389.609375 9869.960938 11415.898438 9808.007812 C 11464.804688 9692.617188 11596.289062 9629.609375 11721.484375 9625.585938 C 11812.109375 9622.695312 11905.507812 9646.71875 11976.09375 9703.515625 C 12046.71875 9760.3125 12091.210938 9852.1875 12080.117188 9942.148438 " transform="matrix(0.1, 0, 0, -0.1, 0, 2113)"/>
<path fill="none" stroke-width="8.229" stroke-linecap="round" stroke-linejoin="round" stroke="rgb(24.705505%, 12.939453%, 9.397888%)" stroke-opacity="1" stroke-miterlimit="10" d="M 11406.601562 9865.898438 C 11413.398438 9639.21875 11097.304688 9586.679688 10939.414062 9656.71875 C 10831.210938 9704.726562 10746.992188 9802.226562 10711.601562 9915.15625 " transform="matrix(0.1, 0, 0, -0.1, 0, 2113)"/>
<path fill-rule="nonzero" fill="rgb(97.65625%, 76.5625%, 72.068787%)" fill-opacity="1" d="M 806.476562 1054.820312 C 806.476562 1072.269531 837.585938 1086.398438 875.960938 1086.398438 C 914.335938 1086.398438 945.445312 1072.269531 945.445312 1054.820312 C 945.445312 1037.378906 914.335938 1023.238281 875.960938 1023.238281 C 837.585938 1023.238281 806.476562 1037.378906 806.476562 1054.820312 "/>
<path fill-rule="nonzero" fill="rgb(97.65625%, 76.5625%, 72.068787%)" fill-opacity="1" d="M 1489.738281 1054.820312 C 1489.738281 1072.269531 1458.628906 1086.398438 1420.25 1086.398438 C 1381.878906 1086.398438 1350.769531 1072.269531 1350.769531 1054.820312 C 1350.769531 1037.378906 1381.878906 1023.238281 1420.25 1023.238281 C 1458.628906 1023.238281 1489.738281 1037.378906 1489.738281 1054.820312 "/>
<path fill-rule="nonzero" fill="rgb(50.976562%, 38.426208%, 23.143005%)" fill-opacity="1" d="M 990.945312 1667.179688 C 982.902344 1619.871094 953.144531 1580.863281 938.074219 1536.007812 C 919.613281 1481.066406 914.78125 1421.535156 924.65625 1364.394531 C 929.449219 1336.648438 934.25 1300.964844 909.84375 1286.929688 C 888.921875 1274.902344 863.5625 1289.863281 846.4375 1307.78125 C 853.851562 1287.976562 863.101562 1269.183594 875.097656 1252.222656 C 967.113281 1275.074219 1067.398438 1278.472656 1147.121094 1275.9375 C 1210.230469 1273.933594 1273.21875 1268.3125 1335.679688 1259.074219 C 1351.300781 1256.765625 1367.011719 1253.5 1382.640625 1249.417969 C 1384.679688 1248.566406 1386.699219 1247.632812 1388.738281 1246.773438 C 1397.628906 1270.242188 1401.539062 1295.828125 1402.871094 1321.828125 C 1385.921875 1311.699219 1366.898438 1306.792969 1347.550781 1311.144531 C 1338.300781 1313.21875 1328.828125 1318.03125 1325.011719 1326.707031 C 1322.441406 1332.566406 1322.839844 1339.242188 1323.28125 1345.625 C 1328.769531 1424.15625 1331.070312 1491.609375 1304.738281 1567.269531 C 1294.011719 1598.117188 1280.148438 1628.308594 1275.890625 1660.691406 C 1272.679688 1685.066406 1276.03125 1711.613281 1288.550781 1732.203125 C 1193.410156 1764.921875 1104.148438 1768.417969 1004.679688 1734.898438 C 998.152344 1732.703125 991.582031 1730.4375 985.046875 1728.0625 C 993.132812 1709.3125 994.402344 1687.53125 990.945312 1667.179688 "/>
<path fill-rule="nonzero" fill="rgb(50.976562%, 38.426208%, 23.143005%)" fill-opacity="1" d="M 672.976562 1654.164062 C 686.824219 1649.734375 702.160156 1650.753906 715.496094 1644.960938 C 744.582031 1632.324219 751.644531 1592.351562 741.011719 1562.476562 C 735.3125 1546.472656 726.082031 1532.289062 716.082031 1518.480469 C 707.414062 1506.507812 698.175781 1494.820312 690.089844 1482.515625 C 683.9375 1473.148438 678.613281 1463.261719 673.851562 1453.109375 C 656.292969 1415.65625 648.363281 1373.671875 652.558594 1332.546875 C 655.410156 1304.585938 665.300781 1274.921875 688.832031 1259.550781 C 715.5625 1242.089844 752.558594 1248.824219 778.683594 1267.171875 C 800.414062 1282.433594 816.28125 1304.214844 830.792969 1326.660156 C 770.535156 1406.777344 756.855469 1516.179688 773.722656 1615.753906 C 781.785156 1663.328125 798.128906 1712.289062 833.410156 1744.632812 C 806.476562 1763.851562 770.546875 1772.546875 736.71875 1773.773438 C 698.292969 1775.160156 652.945312 1764.488281 638.257812 1728.957031 C 626.460938 1700.414062 643.5625 1663.570312 672.976562 1654.164062 "/>
<path fill-rule="nonzero" fill="rgb(50.976562%, 38.426208%, 23.143005%)" fill-opacity="1" d="M 1449.328125 1370.09375 C 1438.949219 1352.394531 1424.171875 1335.753906 1407 1324.398438 C 1446.050781 1258.605469 1540.871094 1202.457031 1600.761719 1270.007812 C 1637.199219 1311.117188 1627.671875 1375.835938 1603.589844 1425.210938 C 1579.511719 1474.589844 1543.121094 1518.59375 1529.21875 1571.738281 C 1524.089844 1591.34375 1522.960938 1614.421875 1536.351562 1629.640625 C 1555.910156 1651.882812 1593.648438 1644.527344 1617.820312 1661.648438 C 1647.878906 1682.949219 1640.011719 1734.417969 1610.03125 1755.824219 C 1580.050781 1777.234375 1538.730469 1774.53125 1503.941406 1762.386719 C 1478.921875 1753.648438 1455.601562 1740.324219 1435.019531 1723.621094 C 1461.148438 1690.140625 1471.058594 1646.15625 1477.171875 1603.730469 C 1488.570312 1524.570312 1489.78125 1439.082031 1449.328125 1370.09375 "/>
<path fill-rule="nonzero" fill="rgb(40.380859%, 27.43988%, 16.479492%)" fill-opacity="1" d="M 278.210938 1268.953125 C 294.097656 1181.777344 370.492188 1107.710938 458.726562 1099.558594 C 476.289062 1097.941406 494.15625 1098.75 511.277344 1102.96875 C 531.878906 1108.050781 551.101562 1118.027344 568.007812 1130.839844 C 619.660156 1170 648.554688 1241.769531 626.714844 1302.796875 C 604.875 1363.824219 526.140625 1401.109375 469.347656 1369.882812 C 450.988281 1359.785156 435.679688 1343.152344 429.976562 1322.992188 C 424.273438 1302.828125 429.34375 1279.28125 444.851562 1265.191406 C 452.769531 1257.992188 464.527344 1253.453125 474.25 1257.929688 C 487.964844 1264.25 489.359375 1283.210938 498.851562 1294.957031 C 515.054688 1315.007812 551.640625 1304.609375 561.5 1280.789062 C 571.355469 1256.96875 559.941406 1228.753906 541.410156 1210.832031 C 523.652344 1193.660156 499.488281 1183.273438 474.808594 1182.207031 C 419.585938 1179.816406 369 1226.6875 359.863281 1281.203125 C 350.726562 1335.71875 378.695312 1392.617188 423.058594 1425.585938 C 490.410156 1475.644531 592.410156 1472.183594 670.558594 1453.949219 C 671.644531 1453.695312 672.753906 1453.386719 673.851562 1453.109375 C 678.613281 1463.261719 683.9375 1473.148438 690.089844 1482.515625 C 698.175781 1494.820312 707.414062 1506.507812 716.082031 1518.480469 C 689.984375 1529.53125 661.71875 1536.144531 633.53125 1539.800781 C 545.421875 1551.210938 454.617188 1551.371094 378.222656 1499.507812 C 304.910156 1449.734375 262.320312 1356.132812 278.210938 1268.953125 "/>
<path fill-rule="nonzero" fill="rgb(61.131287%, 48.631287%, 32.151794%)" fill-opacity="1" d="M 1304.738281 1567.269531 C 1331.070312 1491.609375 1328.769531 1424.15625 1323.28125 1345.625 C 1322.839844 1339.242188 1322.441406 1332.566406 1325.011719 1326.707031 C 1328.828125 1318.03125 1338.300781 1313.21875 1347.550781 1311.144531 C 1366.898438 1306.792969 1385.921875 1311.699219 1402.871094 1321.828125 C 1404.25 1322.664062 1405.640625 1323.496094 1407 1324.398438 C 1424.171875 1335.753906 1438.949219 1352.394531 1449.328125 1370.09375 C 1489.78125 1439.082031 1488.570312 1524.570312 1477.171875 1603.730469 C 1471.058594 1646.15625 1461.148438 1690.140625 1435.019531 1723.621094 C 1432.878906 1726.363281 1430.851562 1729.179688 1428.480469 1731.773438 C 1397.210938 1766.023438 1339.488281 1780.066406 1303.941406 1750.285156 C 1297.75 1745.097656 1292.671875 1738.964844 1288.550781 1732.203125 C 1276.03125 1711.613281 1272.679688 1685.066406 1275.890625 1660.691406 C 1280.148438 1628.308594 1294.011719 1598.117188 1304.738281 1567.269531 "/>
<path fill-rule="nonzero" fill="rgb(61.131287%, 48.631287%, 32.151794%)" fill-opacity="1" d="M 830.792969 1326.660156 C 834.597656 1321.597656 838.5625 1316.636719 842.746094 1311.820312 C 843.921875 1310.464844 845.164062 1309.117188 846.4375 1307.78125 C 863.5625 1289.863281 888.921875 1274.902344 909.84375 1286.929688 C 934.25 1300.964844 929.449219 1336.648438 924.65625 1364.394531 C 914.78125 1421.535156 919.613281 1481.066406 938.074219 1536.007812 C 953.144531 1580.863281 982.902344 1619.871094 990.945312 1667.179688 C 994.402344 1687.53125 993.132812 1709.3125 985.046875 1728.0625 C 982.671875 1733.570312 979.777344 1738.851562 976.15625 1743.71875 C 945.679688 1784.617188 879.023438 1782.300781 839.382812 1750.207031 C 837.246094 1748.476562 835.417969 1746.476562 833.410156 1744.632812 C 798.128906 1712.289062 781.785156 1663.328125 773.722656 1615.753906 C 756.855469 1516.179688 770.535156 1406.777344 830.792969 1326.660156 "/>
<path fill-rule="nonzero" fill="rgb(97.65625%, 86.71875%, 76.5625%)" fill-opacity="1" d="M 1015.171875 1302.089844 C 1008.03125 1301.722656 1000.601562 1301.546875 994.085938 1304.492188 C 983.523438 1309.269531 978.082031 1320.871094 973.90625 1331.6875 C 936.375 1428.984375 939.183594 1542.542969 1040.648438 1598.84375 C 1096.121094 1629.628906 1173.679688 1632.253906 1221.699219 1587.71875 C 1265.828125 1546.792969 1288.921875 1486.683594 1293.828125 1426.695312 C 1296.171875 1398.0625 1298.011719 1336.207031 1279.5 1311.839844 C 1269.351562 1298.480469 1249.410156 1299.152344 1232.738281 1301.128906 C 1156.398438 1310.167969 1091.390625 1306.046875 1015.171875 1302.089844 "/>
<path fill-rule="nonzero" fill="rgb(97.65625%, 86.71875%, 76.5625%)" fill-opacity="1" d="M 1462.230469 1670.894531 C 1455.839844 1689.929688 1447.25 1707.949219 1435.019531 1723.621094 C 1432.878906 1726.363281 1430.851562 1729.179688 1428.480469 1731.773438 C 1397.210938 1766.023438 1339.488281 1780.066406 1303.941406 1750.285156 C 1297.75 1745.097656 1292.671875 1738.964844 1288.550781 1732.203125 C 1276.03125 1711.613281 1272.679688 1685.066406 1275.890625 1660.691406 C 1277.429688 1649 1280.238281 1637.601562 1283.679688 1626.347656 C 1338.5 1655.15625 1400.308594 1670.523438 1462.230469 1670.894531 "/>
<path fill-rule="nonzero" fill="rgb(97.65625%, 86.71875%, 76.5625%)" fill-opacity="1" d="M 978.566406 1626.171875 C 983.96875 1639.355469 988.507812 1652.867188 990.945312 1667.179688 C 994.402344 1687.53125 993.132812 1709.3125 985.046875 1728.0625 C 982.671875 1733.570312 979.777344 1738.851562 976.15625 1743.71875 C 945.679688 1784.617188 879.023438 1782.300781 839.382812 1750.207031 C 837.246094 1748.476562 835.417969 1746.476562 833.410156 1744.632812 C 811.203125 1724.273438 796.519531 1697.332031 786.660156 1668.300781 C 852.84375 1678.445312 922.859375 1663.371094 978.566406 1626.171875 "/>
<path fill-rule="nonzero" fill="rgb(97.65625%, 86.71875%, 76.5625%)" fill-opacity="1" d="M 672.976562 1654.164062 C 686.824219 1649.734375 702.160156 1650.753906 715.496094 1644.960938 C 729.496094 1638.878906 738.339844 1626.441406 742.621094 1611.867188 C 752.890625 1614.460938 763.375 1616.152344 773.941406 1616.890625 C 782.070312 1664.109375 798.410156 1712.546875 833.410156 1744.632812 C 806.476562 1763.851562 770.546875 1772.546875 736.71875 1773.773438 C 698.292969 1775.160156 652.945312 1764.488281 638.257812 1728.957031 C 626.460938 1700.414062 643.5625 1663.570312 672.976562 1654.164062 "/>
<path fill-rule="nonzero" fill="rgb(97.65625%, 86.71875%, 76.5625%)" fill-opacity="1" d="M 1525.828125 1601.78125 C 1526.511719 1612.105469 1529.53125 1621.894531 1536.351562 1629.640625 C 1555.910156 1651.882812 1593.648438 1644.527344 1617.820312 1661.648438 C 1647.878906 1682.949219 1640.011719 1734.417969 1610.03125 1755.824219 C 1580.050781 1777.234375 1538.730469 1774.53125 1503.941406 1762.386719 C 1478.921875 1753.648438 1455.601562 1740.324219 1435.019531 1723.621094 C 1459.851562 1691.796875 1469.988281 1650.488281 1476.191406 1610.039062 C 1487.699219 1609.0625 1499.171875 1607.621094 1510.53125 1605.503906 C 1515.621094 1604.558594 1520.808594 1603.371094 1525.828125 1601.78125 "/>
<path fill-rule="nonzero" fill="rgb(24.705505%, 12.939453%, 9.397888%)" fill-opacity="1" d="M 1821.929688 599.5 C 1833.550781 626.660156 1838.351562 657.191406 1832.558594 686.160156 C 1830.460938 700.75 1825.160156 714.609375 1819.351562 727.960938 C 1812.789062 741.019531 1805.410156 753.671875 1796.128906 764.941406 C 1777.691406 787.441406 1754.199219 805.839844 1727.441406 817.539062 C 1700.671875 829.261719 1671.089844 834.789062 1641.589844 834.300781 L 1643.109375 835.539062 C 1637.578125 813.101562 1630.25 791.191406 1622.160156 769.589844 C 1613.839844 748.058594 1604.339844 726.980469 1593.601562 706.519531 C 1572.078125 665.628906 1545.449219 627.238281 1513.789062 593.320312 L 1513.988281 598.511719 C 1533.371094 574.640625 1557.941406 555.261719 1584.789062 540.449219 C 1611.699219 525.671875 1641.570312 516.21875 1672.070312 513.539062 C 1702.46875 510.839844 1734.011719 515.921875 1760.96875 531.101562 C 1774.371094 538.679688 1786.621094 548.53125 1796.769531 560.308594 C 1806.921875 572.078125 1815.21875 585.421875 1821.929688 599.5 Z M 1822.699219 599.160156 C 1809.890625 570.660156 1789.859375 544.78125 1762.929688 527.808594 C 1736.109375 510.679688 1703.320312 503.511719 1671.511719 505.621094 C 1639.558594 507.511719 1608.578125 517.71875 1580.589844 532.71875 C 1552.539062 547.78125 1527.671875 568.679688 1507.808594 593.550781 L 1505.640625 596.269531 L 1508.019531 598.75 C 1523.808594 615.21875 1538.511719 632.808594 1552.160156 651.160156 C 1565.769531 669.558594 1578.519531 688.628906 1589.828125 708.578125 C 1601.199219 728.488281 1611.210938 749.210938 1619.570312 770.589844 C 1628.140625 791.890625 1634.75 813.960938 1639.96875 836.289062 L 1640.25 837.46875 L 1641.488281 837.53125 C 1671.351562 838.820312 1701.78125 834.679688 1729.929688 823.5 C 1743.871094 817.671875 1757.359375 810.441406 1769.320312 801.101562 C 1775.558594 796.75 1781.070312 791.519531 1786.648438 786.371094 C 1789.511719 783.878906 1791.769531 780.78125 1794.351562 778.011719 C 1796.789062 775.121094 1799.53125 772.460938 1801.640625 769.300781 C 1810.941406 757.328125 1818.601562 744.140625 1824.511719 730.238281 C 1829.851562 716.148438 1834.511719 701.679688 1835.96875 686.671875 L 1836.761719 681.101562 L 1836.980469 675.46875 L 1837.371094 664.238281 C 1836.648438 656.78125 1836.871094 649.261719 1835.339844 641.921875 C 1833.660156 627.019531 1828.390625 612.871094 1822.699219 599.160156 "/>
<path fill-rule="nonzero" fill="rgb(24.705505%, 12.939453%, 9.397888%)" fill-opacity="1" d="M 641.667969 486.191406 C 663.789062 494.289062 684.207031 507.191406 700.601562 524.03125 C 717.125 540.71875 730.257812 560.570312 739.375 581.96875 L 740.003906 578.511719 C 724.160156 593.871094 709.179688 610.238281 695.855469 627.921875 C 682.648438 645.640625 670.484375 664.210938 660.351562 683.871094 C 650.109375 703.449219 641.378906 723.769531 634.082031 744.558594 L 628.765625 760.199219 C 627.171875 765.460938 625.882812 770.820312 624.429688 776.128906 C 621.554688 786.75 618.878906 797.421875 615.847656 808 L 617.097656 806.980469 C 592.714844 807.160156 568.058594 805.660156 544.699219 798.738281 C 521.308594 792.429688 499.085938 781.589844 481.089844 765.800781 C 462.9375 750.191406 449.695312 729.351562 442.925781 706.488281 C 435.945312 683.671875 434.792969 659.261719 438.046875 635.570312 C 444.925781 588.21875 468.695312 542.910156 505.347656 511.789062 C 523.714844 496.378906 545.765625 484.96875 569.621094 480.339844 C 593.460938 475.328125 618.578125 478.320312 641.667969 486.191406 Z M 641.949219 485.398438 C 618.871094 476.839844 593.679688 473.949219 569.140625 477.488281 C 544.597656 481.058594 521.085938 491.460938 501.144531 506.550781 C 461.421875 537.429688 436.714844 584.96875 429.246094 634.351562 C 426.023438 659.199219 427.664062 684.871094 435.34375 708.890625 C 436.867188 715.019531 439.929688 720.621094 442.25 726.460938 C 444.945312 732.148438 448.328125 737.519531 451.53125 742.921875 C 458.878906 753.160156 467.058594 762.859375 476.863281 770.730469 C 496.21875 786.851562 519.726562 796.871094 543.703125 802.628906 C 567.746094 808.710938 592.59375 810.039062 617.136719 809.578125 L 618.125 809.558594 L 618.390625 808.558594 C 621.164062 797.980469 624.289062 787.480469 627.21875 776.949219 C 628.746094 771.699219 630.105469 766.398438 631.765625 761.191406 C 633.539062 756.019531 635.378906 750.871094 637.390625 745.789062 C 645.4375 725.460938 654.875 705.710938 665.691406 686.789062 C 687.429688 649.019531 713.921875 614.128906 744.34375 582.878906 L 745.890625 581.289062 L 744.976562 579.421875 C 734.449219 557.820312 719.972656 538.25 702.421875 522.140625 C 684.785156 506.199219 664.492188 492.980469 641.949219 485.398438 "/>
<path fill-rule="nonzero" fill="rgb(24.705505%, 12.939453%, 9.397888%)" fill-opacity="1" d="M 617.527344 808.371094 L 626.644531 775.558594 C 629.472656 764.558594 633.03125 753.78125 637.175781 743.210938 C 645.269531 722.011719 654.886719 701.378906 666.066406 681.648438 C 688.433594 642.179688 716.878906 606.210938 749.878906 575.140625 C 815.578125 512.769531 899.117188 468.980469 988.1875 452.671875 L 993.527344 451.691406 L 989.046875 448.601562 C 968.714844 434.570312 956.460938 409.5 957.835938 384.941406 L 953.464844 386.550781 C 991.890625 427.480469 1047.511719 451.621094 1103.828125 451.679688 L 1110.511719 451.691406 L 1106.238281 446.519531 C 1083.011719 418.421875 1078.429688 376.160156 1094.960938 343.871094 L 1088.628906 343.941406 C 1101.988281 369.058594 1122.570312 389.679688 1145.808594 405.339844 C 1169.070312 421.148438 1194.699219 432.820312 1220.871094 442.289062 C 1273.238281 460.390625 1325.820312 477.449219 1375.429688 501.488281 C 1425.058594 525.21875 1470.808594 557.171875 1508.46875 597.359375 C 1546.351562 637.28125 1577.988281 683.179688 1602.148438 732.671875 C 1614.199219 757.441406 1624.339844 783.140625 1632.339844 809.511719 C 1636.351562 822.691406 1639.878906 836.019531 1642.378906 849.570312 L 1646.519531 869.820312 C 1647.800781 876.589844 1648.558594 883.449219 1649.601562 890.261719 C 1656.53125 944.710938 1654.179688 1001.480469 1634.339844 1053.089844 C 1624.570312 1078.828125 1610.378906 1102.820312 1592.808594 1123.96875 C 1575.21875 1145.125 1554.300781 1163.347656 1531.691406 1179.097656 C 1486.5 1210.679688 1435.410156 1233.578125 1382.148438 1247.535156 L 1383.378906 1251.214844 L 1409.660156 1239.886719 C 1418.28125 1235.808594 1426.980469 1231.691406 1435.308594 1226.996094 C 1443.589844 1222.171875 1451.921875 1217.4375 1459.691406 1211.816406 C 1467.769531 1206.640625 1475.179688 1200.554688 1482.71875 1194.648438 C 1512.289062 1170.304688 1537.609375 1140.679688 1556.761719 1107.429688 C 1575.5 1074.019531 1588.621094 1036.96875 1591.96875 998.539062 C 1592.328125 993.75 1593.070312 988.96875 1593.109375 984.160156 L 1593.199219 969.71875 C 1593.371094 960.101562 1592.449219 950.410156 1590.808594 940.839844 C 1587.511719 921.910156 1579.910156 902.269531 1564.28125 889.191406 L 1565.261719 892.671875 C 1570.851562 876.101562 1571.921875 858.339844 1569.980469 841.230469 C 1568.058594 824.058594 1563.328125 807.398438 1557.128906 791.46875 C 1544.550781 759.75 1527.191406 729.75 1504.519531 704.019531 C 1481.839844 678.488281 1454.25 656.578125 1422.171875 643.648438 L 1416.230469 641.089844 L 1410.050781 639.171875 L 1397.648438 635.410156 L 1384.929688 633.03125 L 1378.550781 631.890625 L 1372.101562 631.410156 C 1354.898438 629.398438 1337.570312 631.21875 1320.648438 634 C 1252.480469 647 1194.738281 692.089844 1152.640625 744 C 1146.960938 749.820312 1140.71875 755.058594 1133.710938 757.808594 C 1126.75 760.648438 1119 760.289062 1112.269531 757.050781 C 1105.46875 753.820312 1099.628906 748.121094 1094.320312 741.941406 C 1088.960938 735.738281 1084.21875 728.738281 1078.351562 722.351562 C 1056.160156 696.109375 1027.78125 674.949219 995.90625 661.988281 C 964.066406 649 929.324219 643.28125 894.976562 645.480469 C 860.683594 648.199219 826.996094 659.019531 797.789062 677.328125 C 768.378906 695.121094 744.015625 722.089844 730.078125 753.789062 C 723.105469 769.640625 718.578125 786.628906 717.25 803.980469 C 716.824219 812.648438 716.691406 821.390625 717.898438 830.019531 C 718.285156 834.359375 719.164062 838.628906 720.085938 842.878906 C 720.855469 847.261719 722.351562 851.199219 722.089844 854.238281 C 721.933594 856.96875 719.964844 859.96875 717.277344 862.890625 C 714.644531 865.789062 711.570312 868.539062 708.425781 871.289062 C 702.355469 876.789062 694.855469 882.148438 690.277344 890.320312 C 681.148438 905.371094 676.289062 922.410156 673.84375 939.300781 C 668.652344 973.019531 668.742188 1007.730469 675.78125 1041.128906 C 688.882812 1108.46875 726.128906 1168.605469 772.386719 1217.757812 L 774.808594 1214.480469 C 739.546875 1197.253906 706.648438 1174.539062 680.339844 1145.316406 C 653.730469 1116.285156 635.613281 1080.359375 625.101562 1042.429688 C 602.757812 966.789062 600.886719 885.480469 617.527344 808.371094 Z M 616.710938 808.191406 C 599.5 885.320312 600.773438 966.910156 622.710938 1043.121094 C 632.992188 1081.320312 651.117188 1117.960938 677.863281 1147.527344 C 704.316406 1177.320312 737.476562 1200.546875 772.980469 1218.199219 L 783.082031 1223.21875 L 775.402344 1214.921875 C 729.957031 1165.796875 693.824219 1106.070312 681.589844 1040 C 674.980469 1007.210938 675.214844 973.300781 680.566406 940.410156 C 683.074219 924.019531 687.910156 907.941406 696.453125 894.128906 C 700.210938 887.371094 706.902344 882.621094 713.320312 876.949219 C 716.546875 874.171875 719.820312 871.328125 722.898438 868.011719 C 725.824219 864.800781 729.253906 860.589844 729.777344 854.761719 C 730.089844 849.261719 728.257812 845.140625 727.71875 841.210938 C 726.890625 837.199219 726.097656 833.199219 725.773438 829.109375 C 724.703125 821 724.917969 812.769531 725.375 804.609375 C 726.820312 788.28125 731.175781 772.25 737.722656 757.179688 C 751.042969 726.980469 773.863281 701.53125 802.210938 684.320312 C 830.226562 666.738281 862.5625 656.308594 895.570312 653.640625 C 928.628906 651.5 962.121094 656.988281 992.808594 669.460938 C 1023.539062 681.921875 1050.851562 702.289062 1072.21875 727.488281 C 1083.25 739.480469 1091.761719 755.691406 1108.871094 764.25 C 1117.320312 768.398438 1127.871094 768.839844 1136.578125 765.21875 C 1145.351562 761.71875 1152.25 755.699219 1158.320312 749.519531 C 1170.25 736.769531 1180.140625 723.75 1192.539062 712.410156 C 1198.410156 706.488281 1204.929688 701.25 1211.199219 695.769531 C 1217.851562 690.769531 1224.210938 685.351562 1231.261719 680.890625 C 1244.839844 671.21875 1259.648438 663.460938 1274.710938 656.488281 C 1289.980469 649.949219 1305.808594 644.738281 1322.089844 641.601562 C 1338.359375 638.929688 1354.988281 637.148438 1371.421875 639.070312 L 1377.589844 639.519531 L 1383.679688 640.609375 L 1395.839844 642.871094 L 1407.679688 646.449219 L 1413.589844 648.28125 L 1419.269531 650.730469 C 1450.011719 663.050781 1476.808594 684.25 1498.851562 709.019531 C 1520.859375 733.988281 1538.128906 763.121094 1550.578125 794.039062 C 1562.75 824.679688 1569.46875 859.191406 1559.179688 890.628906 L 1558.488281 892.738281 L 1560.171875 894.121094 C 1574.230469 905.691406 1581.570312 923.738281 1584.839844 941.910156 C 1586.46875 951.070312 1587.429688 960.429688 1587.320312 969.828125 L 1587.320312 983.941406 C 1587.308594 988.640625 1586.609375 993.320312 1586.289062 998.011719 C 1583.25 1035.589844 1570.628906 1071.988281 1552.410156 1104.960938 C 1533.789062 1137.773438 1509.011719 1167.144531 1479.929688 1191.265625 C 1472.511719 1197.121094 1465.230469 1203.167969 1457.289062 1208.304688 C 1449.640625 1213.886719 1441.429688 1218.585938 1433.28125 1223.386719 C 1425.070312 1228.0625 1416.539062 1232.144531 1408 1236.234375 L 1381.890625 1247.625 L 1383.128906 1251.300781 C 1436.769531 1236.988281 1488.121094 1213.707031 1533.519531 1181.6875 C 1556.199219 1165.742188 1577.289062 1147.21875 1594.980469 1125.757812 C 1612.699219 1104.320312 1626.730469 1079.929688 1636.769531 1054.019531 C 1657.101562 1001.988281 1659.761719 944.710938 1653.089844 889.820312 C 1652.078125 882.960938 1651.359375 876.050781 1650.109375 869.21875 L 1646.050781 848.800781 C 1643.601562 835.128906 1640.121094 821.671875 1636.148438 808.359375 C 1628.230469 781.75 1618.148438 755.78125 1606.140625 730.738281 C 1582.039062 680.699219 1550.429688 634.230469 1512.351562 593.710938 C 1474.46875 552.851562 1428.148438 520.171875 1378.128906 495.960938 C 1328.179688 471.441406 1275.269531 453.988281 1223.25 435.71875 C 1197.511719 426.261719 1172.460938 414.671875 1150 399.230469 C 1127.648438 383.820312 1107.800781 364.390625 1094.921875 340.570312 L 1091.648438 334.519531 L 1088.589844 340.640625 C 1071.039062 375.820312 1076.308594 420.511719 1101.398438 450.550781 L 1103.808594 445.390625 C 1049.300781 445.75 994.863281 422.671875 957.148438 383.070312 L 953.050781 378.761719 L 952.777344 384.679688 C 951.539062 411.109375 964.722656 437.46875 986.503906 452.320312 L 987.363281 448.25 C 897.523438 465.421875 813.695312 510.058594 748.050781 573.230469 C 715.082031 604.691406 686.738281 641.019531 664.546875 680.800781 C 653.453125 700.679688 643.941406 721.441406 635.96875 742.75 C 631.882812 753.378906 628.390625 764.210938 625.625 775.25 L 616.710938 808.191406 "/>
<path fill-rule="nonzero" fill="rgb(24.705505%, 12.939453%, 9.397888%)" fill-opacity="1" d="M 991.355469 1667.109375 C 984.824219 1627.816406 963.101562 1593.75 947.730469 1557.882812 C 932.617188 1521.773438 924.597656 1482.820312 922.738281 1443.886719 C 921.738281 1424.394531 922.636719 1404.847656 924.890625 1385.519531 C 926.960938 1366.292969 932.285156 1347.035156 932.015625 1326.613281 C 931.769531 1316.546875 930.410156 1305.828125 924.695312 1296.480469 C 919.144531 1287.097656 909.058594 1280.53125 898.160156 1279.148438 C 887.183594 1277.949219 876.660156 1281.429688 867.742188 1286.414062 C 858.730469 1291.445312 850.878906 1298.03125 843.863281 1305.320312 L 849.773438 1309.027344 C 856.964844 1289.671875 866.035156 1271.003906 877.714844 1254.074219 L 874.328125 1255.332031 C 916.011719 1265.179688 958.460938 1271.070312 1001.011719 1274.390625 C 1043.578125 1277.589844 1086.261719 1278.707031 1128.890625 1277.6875 C 1171.53125 1276.851562 1214.128906 1274.441406 1256.589844 1270.453125 C 1277.828125 1268.527344 1299.03125 1266.199219 1320.191406 1263.441406 C 1341.320312 1260.894531 1362.578125 1257.304688 1383.300781 1251.953125 L 1383.480469 1251.90625 L 1383.640625 1251.839844 L 1389.78125 1249.230469 L 1386.238281 1247.71875 C 1394.980469 1271.378906 1398.519531 1296.714844 1399.628906 1321.996094 L 1404.53125 1319.054688 C 1386.378906 1307.8125 1363.171875 1302.128906 1341.640625 1308.957031 C 1336.300781 1310.699219 1331 1313.363281 1326.71875 1317.667969 C 1322.320312 1321.855469 1319.730469 1328.191406 1319.308594 1333.949219 C 1318.761719 1339.773438 1319.421875 1345.082031 1319.691406 1350.234375 L 1320.648438 1365.847656 C 1323.058594 1407.433594 1324.140625 1449.167969 1318.460938 1490.175781 C 1315.648438 1510.648438 1311.429688 1530.914062 1305.480469 1550.699219 C 1299.628906 1570.46875 1291.578125 1589.710938 1284.648438 1609.601562 C 1277.730469 1629.449219 1271.75 1650.113281 1270.679688 1671.746094 C 1269.699219 1693.175781 1273.628906 1715.449219 1285.160156 1734.261719 L 1287.261719 1728.453125 C 1238.871094 1745.515625 1187.921875 1755.980469 1136.449219 1756.011719 C 1110.738281 1756.046875 1085.011719 1753.457031 1059.699219 1748.535156 C 1034.351562 1743.726562 1009.621094 1736.085938 985.292969 1727.382812 L 985.710938 1728.347656 C 993.855469 1709.058594 994.882812 1687.457031 991.355469 1667.109375 Z M 990.53125 1667.25 C 993.84375 1687.5 992.578125 1708.898438 984.382812 1727.773438 L 984.078125 1728.476562 L 984.800781 1728.742188 C 1009.078125 1737.660156 1033.820312 1745.558594 1059.160156 1751.164062 C 1084.488281 1756.753906 1110.390625 1759.953125 1136.390625 1760.636719 C 1162.390625 1761.320312 1188.480469 1759.421875 1214.191406 1755.183594 C 1239.878906 1750.835938 1265.160156 1744.214844 1289.839844 1735.953125 L 1294.441406 1734.414062 L 1291.941406 1730.144531 C 1281.859375 1712.945312 1278.210938 1692.269531 1279.140625 1672.140625 C 1280.179688 1651.921875 1285.929688 1631.945312 1292.800781 1612.460938 C 1299.660156 1592.910156 1307.820312 1573.550781 1313.910156 1553.242188 C 1320.03125 1533.019531 1324.488281 1512.273438 1327.140625 1491.324219 C 1332.648438 1449.375 1331.238281 1407.09375 1328.539062 1365.363281 L 1327.460938 1349.703125 C 1327.128906 1344.445312 1326.53125 1339.300781 1326.96875 1334.695312 C 1327.308594 1325.394531 1334.769531 1319.023438 1343.96875 1315.972656 C 1362.71875 1309.710938 1383.960938 1314.253906 1401.210938 1324.609375 L 1406.460938 1327.761719 L 1406.101562 1321.664062 C 1404.578125 1295.988281 1400.609375 1270.09375 1391.238281 1245.824219 L 1390.21875 1243.195312 L 1387.699219 1244.3125 L 1381.628906 1246.996094 L 1381.96875 1246.882812 C 1361.5 1252.492188 1340.71875 1256.308594 1319.601562 1259.199219 C 1298.550781 1262.285156 1277.429688 1264.9375 1256.269531 1267.191406 C 1213.929688 1271.523438 1171.410156 1274.265625 1128.851562 1275.089844 C 1086.300781 1275.613281 1043.679688 1274.695312 1001.351562 1270.445312 C 959.039062 1266.304688 916.957031 1259.632812 875.871094 1249.113281 L 873.78125 1248.578125 L 872.480469 1250.371094 C 859.992188 1267.589844 850.546875 1286.785156 843.105469 1306.53125 L 837.09375 1322.492188 L 849.015625 1310.242188 C 855.644531 1303.425781 863.066406 1297.304688 871.265625 1292.804688 C 879.402344 1288.292969 888.53125 1285.550781 897.238281 1286.5625 C 905.796875 1287.789062 913.886719 1292.847656 918.441406 1300.339844 C 923.195312 1307.820312 924.695312 1317.355469 925 1326.757812 C 925.519531 1345.824219 920.535156 1365.003906 918.574219 1384.824219 C 916.726562 1404.5625 916.351562 1424.441406 917.851562 1444.175781 C 920.757812 1483.609375 929.769531 1522.660156 945.886719 1558.695312 C 961.945312 1594.480469 983.636719 1628.265625 990.53125 1667.25 "/>
<path fill-rule="nonzero" fill="rgb(24.705505%, 12.939453%, 9.397888%)" fill-opacity="1" d="M 673.105469 1654.5625 C 685.988281 1650.542969 699.910156 1651.253906 712.945312 1646.683594 C 719.355469 1644.257812 725.382812 1640.632812 730.210938 1635.683594 C 735.046875 1630.742188 738.632812 1624.742188 741.355469 1618.449219 C 746.773438 1605.765625 748.160156 1591.601562 746.460938 1577.929688 C 744.925781 1564.101562 739.21875 1551.15625 732.652344 1539.191406 C 719.042969 1515.253906 701.492188 1494.585938 687.507812 1471.765625 C 674.417969 1448.511719 664.574219 1423.375 659.296875 1397.230469 C 654.140625 1371.132812 653.066406 1343.941406 657.601562 1317.71875 C 660.066406 1304.695312 664.257812 1291.878906 671.265625 1280.703125 C 678.179688 1269.519531 688.363281 1260.351562 700.621094 1255.421875 C 725.570312 1245.882812 754.621094 1252.554688 776.574219 1267.320312 C 798.792969 1282.585938 815.007812 1304.863281 829.363281 1327.582031 L 829.433594 1325.640625 C 818.167969 1340.644531 808.222656 1356.617188 799.703125 1373.371094 C 791.527344 1390.28125 784.660156 1407.8125 779.164062 1425.796875 C 768.617188 1461.878906 763.269531 1499.46875 763.175781 1537.078125 C 763.222656 1574.675781 767.078125 1612.277344 776.253906 1648.9375 C 785.773438 1685.210938 801.941406 1721.542969 830.542969 1747.757812 L 830.945312 1741.179688 C 810.59375 1755.53125 786.121094 1763.878906 761.183594 1767.898438 C 736.199219 1771.75 710.285156 1772.226562 685.898438 1765.265625 C 673.890625 1761.601562 662.144531 1756.171875 653.019531 1747.488281 C 648.351562 1743.292969 644.5 1738.230469 641.539062 1732.691406 C 638.324219 1727.242188 636.613281 1721.082031 635.8125 1714.832031 C 632.957031 1689.691406 648.648438 1662.84375 673.105469 1654.5625 Z M 672.851562 1653.765625 C 647.828125 1661.871094 631.382812 1688.929688 633.867188 1715.03125 C 634.453125 1721.523438 636.058594 1728.105469 639.203125 1733.894531 C 642.09375 1739.796875 645.972656 1745.28125 650.722656 1749.867188 C 660.03125 1759.355469 672.136719 1765.445312 684.488281 1769.75 C 709.535156 1777.917969 736.421875 1778.636719 762.246094 1775.074219 C 788.066406 1771.488281 814.023438 1763.613281 835.871094 1748.089844 L 840.132812 1745.0625 L 836.277344 1741.503906 C 809.507812 1716.816406 793.996094 1682.066406 784.867188 1646.691406 C 775.609375 1611.085938 771.394531 1573.976562 771.007812 1537.082031 C 770.898438 1518.597656 772.144531 1500.144531 774.144531 1481.777344 C 776.414062 1463.429688 780.03125 1445.28125 784.757812 1427.402344 C 789.789062 1409.609375 796.183594 1392.222656 803.886719 1375.394531 C 811.914062 1358.722656 821.355469 1342.753906 832.152344 1327.683594 L 832.855469 1326.699219 L 832.222656 1325.738281 C 817.328125 1303.230469 800.925781 1280.585938 778.015625 1265.195312 C 766.664062 1257.492188 753.777344 1252.085938 740.28125 1249.410156 C 726.796875 1246.953125 712.472656 1247.3125 699.414062 1252.300781 C 686.324219 1257.152344 675.148438 1266.648438 667.523438 1278.277344 C 659.789062 1289.890625 655.054688 1303.164062 652.136719 1316.621094 C 646.683594 1343.660156 646.976562 1371.617188 652.261719 1398.613281 C 657.316406 1425.664062 667.449219 1451.691406 681.519531 1475.269531 C 684.957031 1481.269531 688.964844 1486.84375 693.042969 1492.242188 L 705.132812 1508.652344 C 713.269531 1519.59375 721.632812 1530.136719 728.515625 1541.59375 C 735.332031 1553.03125 741.230469 1565.230469 743.136719 1578.402344 C 745.222656 1591.484375 744.367188 1605.253906 739.535156 1617.710938 C 734.949219 1630.230469 725.136719 1640.859375 712.492188 1645.425781 C 699.859375 1650.054688 685.875 1649.546875 672.851562 1653.765625 "/>
<path fill-rule="nonzero" fill="rgb(24.705505%, 12.939453%, 9.397888%)" fill-opacity="1" d="M 1449.691406 1369.882812 C 1439.128906 1351.777344 1424.929688 1335.5625 1407.441406 1323.738281 L 1407.679688 1324.804688 C 1418.539062 1306.824219 1432.929688 1291.140625 1449 1277.847656 C 1465.148438 1264.648438 1483.449219 1253.90625 1503.179688 1247.84375 C 1522.78125 1241.894531 1544.109375 1240.617188 1563.140625 1247.746094 C 1567.621094 1250.054688 1572.410156 1251.765625 1576.640625 1254.5 C 1580.640625 1257.59375 1585.191406 1259.953125 1588.75 1263.585938 C 1596.109375 1270.570312 1603.429688 1277.71875 1608.199219 1286.734375 C 1613.199219 1295.523438 1616.761719 1305.128906 1618.96875 1315.09375 C 1620.960938 1325.121094 1621.648438 1335.402344 1621.5 1345.707031 C 1620.898438 1366.351562 1616.261719 1386.898438 1609.070312 1406.445312 C 1594.320312 1445.625 1569.078125 1480.128906 1549.699219 1517.625 C 1539.980469 1536.359375 1531.300781 1555.875 1526.539062 1576.664062 C 1524.261719 1587.066406 1523.269531 1597.914062 1524.96875 1608.652344 C 1526.621094 1619.296875 1531.960938 1629.96875 1540.960938 1636.558594 C 1549.691406 1643.507812 1560.488281 1646.515625 1570.738281 1648.972656 C 1581.101562 1651.359375 1591.46875 1653.117188 1601.148438 1656.464844 C 1610.769531 1659.78125 1619.621094 1665.105469 1625.25 1673.207031 C 1630.851562 1681.292969 1633.441406 1691.269531 1633.460938 1701.226562 C 1633.308594 1721.175781 1623.578125 1741.238281 1607.671875 1752.757812 C 1591.171875 1764.269531 1570.359375 1768.59375 1550.039062 1767.410156 C 1529.589844 1766.363281 1509.488281 1760.734375 1490.609375 1752.375 C 1471.648438 1744.167969 1453.859375 1733.257812 1437.761719 1720.257812 L 1438.441406 1726.289062 C 1457.910156 1701.109375 1468.46875 1670.707031 1474.78125 1640.476562 C 1477.941406 1625.28125 1480.140625 1609.984375 1481.96875 1594.683594 C 1483.828125 1579.382812 1485.230469 1564.007812 1485.820312 1548.585938 C 1487.160156 1517.785156 1486.039062 1486.746094 1480.570312 1456.394531 C 1477.648438 1441.273438 1474.179688 1426.238281 1469.050781 1411.703125 C 1463.878906 1397.203125 1457.429688 1383.183594 1449.691406 1369.882812 Z M 1448.960938 1370.304688 C 1464.101562 1396.96875 1473.851562 1426.511719 1478.210938 1456.78125 C 1482.621094 1487.066406 1482.671875 1517.808594 1480.171875 1548.234375 C 1477.441406 1578.609375 1473.480469 1609.105469 1466.859375 1638.75 C 1460.148438 1668.21875 1450.078125 1697.410156 1431.601562 1720.953125 L 1428.96875 1724.316406 L 1432.289062 1726.988281 C 1465.53125 1753.730469 1506.011719 1773.566406 1549.679688 1775.722656 C 1571.25 1776.777344 1594 1771.988281 1612.148438 1759.050781 C 1630.429688 1745.582031 1640.289062 1723.230469 1640.101562 1701.167969 C 1639.859375 1690.113281 1636.75 1678.851562 1630.101562 1669.691406 C 1623.410156 1660.460938 1613.101562 1654.667969 1602.859375 1651.398438 C 1592.511719 1648.066406 1581.96875 1646.53125 1571.761719 1644.390625 C 1561.640625 1642.195312 1551.429688 1639.515625 1543.398438 1633.371094 C 1535.109375 1627.5625 1530.058594 1618.101562 1528.25 1608.074219 C 1526.351562 1597.984375 1527.308594 1587.4375 1529.421875 1577.289062 C 1533.988281 1556.914062 1542.210938 1537.371094 1552.011719 1518.835938 C 1561.851562 1500.265625 1573.121094 1482.464844 1583.960938 1464.363281 C 1594.808594 1446.285156 1605.648438 1428.035156 1613.648438 1408.214844 C 1621.53125 1388.4375 1626.859375 1367.484375 1628.058594 1345.960938 C 1628.570312 1335.203125 1627.929688 1324.351562 1625.890625 1313.671875 C 1623.628906 1303.03125 1619.890625 1292.65625 1614.539062 1283.089844 C 1603.578125 1264.085938 1586.191406 1248.9375 1565.539062 1241.191406 C 1544.660156 1233.753906 1521.648438 1235.433594 1501.460938 1242.546875 C 1481.078125 1249.597656 1462.789062 1261.304688 1446.808594 1275.261719 C 1430.789062 1289.253906 1417.199219 1305.828125 1406.320312 1323.992188 L 1405.929688 1324.644531 L 1406.558594 1325.0625 C 1423.949219 1336.515625 1438.25 1352.429688 1448.960938 1370.304688 "/>
<path fill-rule="nonzero" fill="rgb(24.705505%, 12.939453%, 9.397888%)" fill-opacity="1" d="M 278.621094 1269.03125 C 292.632812 1196.003906 348.175781 1132.117188 418.898438 1109.890625 C 453.820312 1098.769531 492.828125 1097.261719 526.820312 1110.898438 C 560.652344 1124.636719 589.832031 1149.746094 608.046875 1181.371094 C 626.40625 1212.691406 635.128906 1250.476562 627.570312 1286.054688 C 621 1321.945312 594.222656 1351.632812 561.617188 1367.1875 C 545.277344 1375.105469 526.957031 1378.933594 508.890625 1378.113281 C 490.839844 1377.296875 472.921875 1371.253906 458.570312 1360.035156 C 444.214844 1349.082031 433.082031 1333.1875 430.203125 1315.253906 C 427.359375 1297.503906 432.847656 1277.910156 446.460938 1265.871094 C 453.070312 1260.078125 462.261719 1256.121094 470.746094 1258.261719 C 479.445312 1260.414062 484.347656 1269.003906 487.925781 1277.324219 C 491.71875 1285.578125 495.125 1295.191406 503.398438 1300.929688 C 511.332031 1306.777344 521.8125 1307.824219 531.089844 1305.941406 C 540.445312 1304.054688 549.328125 1299.300781 555.804688 1292.15625 C 562.53125 1285.089844 565.753906 1275.363281 566.496094 1265.910156 C 567.804688 1246.589844 559.25 1227.929688 546.742188 1213.835938 C 533.996094 1199.726562 517.214844 1189.53125 499.015625 1184.183594 C 480.828125 1178.746094 461.023438 1178.8125 442.742188 1183.996094 C 406.035156 1194.722656 376.308594 1224.140625 362.679688 1259.644531 C 349.269531 1295.722656 354.441406 1336.730469 371.816406 1370.378906 C 380.414062 1387.34375 391.976562 1402.800781 405.734375 1415.960938 C 419.566406 1429.097656 435.773438 1439.558594 452.914062 1447.664062 C 487.421875 1463.9375 525.652344 1469.671875 563.160156 1470.449219 C 600.867188 1471.109375 638.320312 1466.15625 674.941406 1457.371094 L 669.867188 1454.976562 C 672.679688 1460.941406 675.675781 1466.835938 678.941406 1472.601562 C 682.21875 1478.316406 685.664062 1484.144531 689.609375 1489.285156 L 712.585938 1521.007812 L 714.398438 1514.503906 C 667.859375 1534.414062 616.019531 1538.5625 565.390625 1541.753906 C 514.75 1543.820312 462.839844 1538.714844 416.34375 1517.765625 C 393.191406 1507.4375 371.40625 1493.78125 352.640625 1476.609375 C 333.917969 1459.40625 317.964844 1439.164062 305.414062 1416.960938 C 280.148438 1372.648438 270.046875 1319.511719 278.621094 1269.03125 Z M 277.796875 1268.878906 C 268.683594 1319.554688 278.703125 1372.953125 303.394531 1418.070312 C 315.617188 1440.730469 331.347656 1461.550781 350.039062 1479.414062 C 368.761719 1497.273438 390.777344 1511.53125 414.199219 1522.484375 C 461.3125 1544.683594 514.257812 1550.777344 565.652344 1549.539062 C 591.5 1548.976562 617.105469 1546.351562 642.699219 1542.78125 C 668.300781 1538.9375 693.699219 1532.574219 717.765625 1522.453125 L 722.757812 1520.355469 L 719.578125 1515.945312 L 696.867188 1484.457031 C 692.910156 1479.265625 689.75 1473.855469 686.566406 1468.300781 C 683.4375 1462.746094 680.550781 1457.039062 677.835938 1451.242188 L 676.320312 1448.011719 L 672.761719 1448.84375 C 636.996094 1457.242188 600.066406 1462.28125 563.273438 1461.878906 C 526.621094 1461.328125 489.441406 1455.894531 456.261719 1440.445312 C 439.765625 1432.746094 424.253906 1422.855469 410.996094 1410.402344 C 397.839844 1397.886719 386.554688 1383.265625 378.144531 1367.121094 C 361.109375 1335.113281 355.789062 1296.011719 368.101562 1261.652344 C 380.660156 1227.683594 408.949219 1198.882812 444.003906 1188.308594 C 461.457031 1183.214844 480.339844 1182.96875 497.898438 1188.050781 C 515.4375 1193.035156 531.753906 1202.773438 544.09375 1216.214844 C 556.21875 1229.621094 564.519531 1247.519531 563.414062 1265.691406 C 562.761719 1274.648438 559.851562 1283.671875 553.6875 1290.238281 C 547.734375 1296.9375 539.355469 1301.53125 530.5625 1303.367188 C 521.828125 1305.273438 512.058594 1304.214844 504.929688 1298.820312 C 497.511719 1293.679688 494.230469 1284.613281 490.46875 1276.191406 C 488.5625 1271.925781 486.535156 1267.578125 483.554688 1263.703125 C 480.539062 1259.894531 476.398438 1256.644531 471.496094 1255.402344 C 461.546875 1252.90625 451.601562 1257.335938 444.402344 1263.511719 C 429.746094 1276.378906 423.945312 1296.9375 426.5625 1315.796875 C 429.332031 1334.941406 440.859375 1351.871094 455.765625 1363.628906 C 470.644531 1375.652344 489.539062 1382.398438 508.578125 1383.535156 C 527.644531 1384.691406 546.960938 1380.933594 564.246094 1372.890625 C 581.558594 1364.941406 597.304688 1353.382812 609.6875 1338.75 C 622.269531 1324.304688 630.820312 1306.28125 634.652344 1287.566406 C 638.65625 1268.839844 638.574219 1249.339844 634.914062 1230.628906 C 631.109375 1211.925781 623.863281 1194.058594 614.148438 1177.75 C 594.792969 1145.105469 564.449219 1118.894531 528.890625 1105.519531 C 493.035156 1092.019531 453.152344 1094.558594 417.796875 1106.550781 C 400.050781 1112.648438 383.089844 1121.070312 367.757812 1131.84375 C 352.4375 1142.617188 338.558594 1155.308594 326.257812 1169.359375 C 301.59375 1197.453125 284.78125 1232.238281 277.796875 1268.878906 "/>
<path fill-rule="nonzero" fill="rgb(24.705505%, 12.939453%, 9.397888%)" fill-opacity="1" d="M 1305.140625 1567.410156 C 1320.609375 1523.742188 1328.070312 1477.394531 1329.390625 1430.96875 C 1330.179688 1407.746094 1329.171875 1384.535156 1327.980469 1361.40625 L 1326.941406 1344.089844 C 1326.519531 1338.449219 1326.390625 1333.03125 1328.191406 1328.609375 C 1331.808594 1319.621094 1343.011719 1314.945312 1353.648438 1313.597656 C 1375.558594 1310.210938 1397.980469 1319.554688 1415.53125 1333.632812 C 1424.398438 1340.710938 1432.371094 1348.996094 1439.328125 1358.0625 C 1446.289062 1367.132812 1451.71875 1377.308594 1456.828125 1387.578125 C 1477.109375 1429.09375 1482.960938 1476.191406 1481.671875 1521.992188 C 1481.078125 1545.003906 1478.730469 1567.929688 1475.570312 1590.730469 C 1472.359375 1613.535156 1468.460938 1636.238281 1462.148438 1658.160156 C 1455.78125 1680.007812 1446.628906 1701.121094 1433.011719 1718.984375 C 1420.050781 1737.257812 1401.191406 1750.597656 1380.011719 1757.472656 C 1359.019531 1764.382812 1335.269531 1764.15625 1316.058594 1753.6875 C 1296.460938 1743.542969 1284.429688 1722.546875 1279.648438 1700.722656 C 1274.589844 1678.585938 1277.089844 1655.230469 1282.921875 1633.027344 C 1288.710938 1610.707031 1297.78125 1589.335938 1305.140625 1567.410156 Z M 1304.351562 1567.132812 C 1296.5 1588.859375 1287.410156 1610.15625 1280.679688 1632.402344 C 1273.839844 1654.484375 1270.109375 1678.3125 1274.238281 1701.777344 C 1276.238281 1713.4375 1280.039062 1724.992188 1286.371094 1735.304688 C 1292.578125 1745.6875 1301.550781 1754.472656 1312.140625 1760.636719 C 1333.570312 1773.21875 1360.019531 1772.917969 1382.640625 1765.703125 C 1405.390625 1758.429688 1426.429688 1743.988281 1439.988281 1724.238281 C 1454.238281 1705.050781 1463.460938 1682.851562 1469.738281 1660.320312 C 1476.019531 1637.710938 1479.441406 1614.605469 1482.171875 1591.578125 C 1484.988281 1568.527344 1486.339844 1545.273438 1486.261719 1522.042969 C 1486.21875 1498.804688 1484.28125 1475.570312 1480.269531 1452.6875 C 1476.03125 1429.84375 1469.171875 1407.472656 1459.460938 1386.332031 C 1449.789062 1365.25 1436.460938 1345.347656 1418.488281 1330.035156 C 1409.570312 1322.363281 1399.421875 1315.945312 1388.289062 1311.5625 C 1377.179688 1307.238281 1364.851562 1305.117188 1352.730469 1306.714844 C 1346.738281 1307.515625 1340.628906 1308.945312 1334.988281 1311.914062 C 1329.410156 1314.769531 1324.039062 1319.425781 1321.410156 1325.84375 C 1318.800781 1332.25 1319.128906 1338.785156 1319.449219 1344.585938 L 1320.730469 1361.871094 C 1322.441406 1384.890625 1323.621094 1407.902344 1324.128906 1430.929688 C 1324.410156 1453.945312 1323.488281 1477.019531 1320.410156 1499.886719 C 1317.261719 1522.734375 1311.660156 1545.230469 1304.351562 1567.132812 "/>
<path fill-rule="nonzero" fill="rgb(24.705505%, 12.939453%, 9.397888%)" fill-opacity="1" d="M 831.128906 1326.914062 L 842.8125 1312.621094 C 846.867188 1308.019531 851.246094 1303.707031 855.976562 1299.820312 C 865.394531 1292.179688 876.320312 1285.539062 888.359375 1284.09375 C 900.277344 1282.324219 912.605469 1287.933594 918.992188 1297.753906 C 925.46875 1307.640625 926.363281 1320.179688 925.847656 1332.09375 C 925.246094 1344.199219 922.761719 1356.089844 920.722656 1368.328125 C 918.65625 1380.597656 917.175781 1392.980469 916.484375 1405.414062 C 914.988281 1430.289062 916.6875 1455.308594 920.730469 1479.855469 C 925.015625 1504.382812 931.699219 1528.4375 941.359375 1551.398438 C 951.15625 1574.253906 963.628906 1595.589844 973.640625 1618.027344 C 983.753906 1640.273438 991.527344 1664.183594 991.261719 1688.652344 C 991.226562 1712.734375 982.78125 1738.011719 964.023438 1753.195312 C 945.5625 1768.695312 920.0625 1773.210938 896.535156 1770.195312 C 872.855469 1767.035156 849.988281 1756.714844 833.5625 1739.265625 C 816.375 1722.503906 803.960938 1701.265625 795.183594 1678.769531 C 786.449219 1656.195312 780.582031 1632.421875 776.976562 1608.273438 C 769.5625 1560.003906 768.871094 1510.601562 776.492188 1462.21875 C 780.332031 1438.042969 786.574219 1414.1875 795.507812 1391.292969 C 804.472656 1368.414062 816.546875 1346.742188 831.128906 1326.914062 Z M 830.460938 1326.410156 C 800.539062 1365.800781 781.160156 1412.671875 771.070312 1461.222656 C 761.003906 1509.914062 760.855469 1560.480469 768.433594 1609.59375 C 772.101562 1634.160156 777.65625 1658.699219 787.066406 1682 C 796.433594 1705.214844 809.683594 1727.394531 828.085938 1744.941406 C 845.773438 1763.371094 870.710938 1774.0625 895.761719 1776.800781 C 920.761719 1779.628906 947.804688 1773.746094 967.019531 1756.671875 C 971.871094 1752.542969 975.898438 1747.566406 979.589844 1742.421875 C 983.078125 1737.113281 985.84375 1731.414062 988.023438 1725.515625 C 992.316406 1713.679688 994.222656 1701.128906 994.210938 1688.660156 C 994.183594 1663.546875 985.96875 1639.488281 976.296875 1616.851562 C 966.339844 1594.207031 954.472656 1572.496094 945.683594 1549.640625 C 936.925781 1526.855469 931.1875 1502.863281 927.585938 1478.757812 C 923.671875 1454.636719 922.878906 1430.140625 923.738281 1405.78125 C 924.179688 1393.589844 925.398438 1381.429688 927.199219 1369.355469 C 929.101562 1357.28125 930.980469 1344.824219 931.105469 1332.246094 C 931.101562 1319.828125 929.6875 1306.410156 922.027344 1295.632812 C 914.449219 1284.933594 900.574219 1279.523438 888.058594 1281.921875 C 875.53125 1284.128906 864.527344 1290.808594 855.09375 1298.761719 C 850.355469 1302.765625 845.992188 1307.195312 841.972656 1311.898438 L 830.460938 1326.410156 "/>
</svg>
